<svg viewBox="0 0 512 512" xmlns="http://www.w3.org/2000/svg"><path d="M114.8 368.1H32.1c-5.8 0-10.5-4.7-10.5-10.5V154.4c0-5.8 4.7-10.5 10.5-10.5h82.7c5.8 0 10.5 4.7 10.5 10.5v203.2c.1 5.8-4.6 10.5-10.5 10.5zm-72.1-21h61.6V165H42.7v182.1z"/><path d="M303.7 512c-2.3 0-4.5-.7-6.4-2.2L108.4 366c-2.6-2-4.2-5.1-4.2-8.4V154.4c0-3.3 1.5-6.4 4.2-8.4L297.3 2.2c3.2-2.4 7.5-2.8 11.1-1.1 3.6 1.8 5.9 5.4 5.9 9.5v490.9c0 4-2.3 7.7-5.9 9.5-1.6.6-3.2 1-4.7 1zM125.4 352.4l167.7 127.8V31.8L125.4 159.6v192.8zM393.6 334.9c-5.8 0-10.5-4.7-10.5-10.5V187.7c0-5.8 4.7-10.5 10.5-10.5s10.5 4.7 10.5 10.5v136.7c0 5.8-4.7 10.5-10.5 10.5zM479.9 392.4c-5.8 0-10.5-4.7-10.5-10.5V130.1c0-5.8 4.7-10.5 10.5-10.5s10.5 4.7 10.5 10.5v251.7c0 5.9-4.7 10.6-10.5 10.6z"/></svg>
