<svg xmlns="http://www.w3.org/2000/svg" xmlns:xlink="http://www.w3.org/1999/xlink" viewBox="0 0 640 640"><defs><path d="M254.64 179.84l.53.06.52.07.52.09.51.12.5.13.49.16.49.17.47.19.47.21.45.22.45.25.44.25.42.28.41.29.41.31.38.32.38.33.36.35.35.36.34.38.32.39.31.4.29.41.27.43.26.43.24.45.23.46.21.46.19.48.17.48.15.5.14.5.11.51.1.51.07.53.05.53.04.53.01.54v254.54l-.03.54-.04.53-.07.52-.09.52-.11.51-.12.5-.15.49-.17.49-.18.47-.21.47-.22.46-.24.44-.25.44-.28.42-.28.42-.31.4-.32.39-.33.37-.35.36-.37.35-.37.34-.39.32-.41.31-.41.29-.43.27-.44.26-.45.24-.46.23-.47.21-.48.19-.49.17-.5.15-.51.14-.51.11-.52.1-.54.07-.53.05-.55.04-.55.01H150.19l-.54-.01-.54-.04-.53-.05-.52-.07-.52-.1-.51-.11-.5-.14-.49-.15-.49-.17-.47-.19-.47-.21-.45-.23-.45-.24-.44-.26-.42-.27-.41-.29-.41-.31-.38-.32-.38-.34-.36-.35-.35-.36-.34-.37-.32-.39-.31-.4-.29-.42-.27-.42-.26-.44-.24-.44-.23-.46-.21-.47-.19-.47-.17-.49-.15-.49-.14-.5-.11-.51-.1-.52-.07-.52-.05-.53-.04-.54-.01-.54v-254l.01-.54.04-.53.05-.53.07-.53.1-.51.11-.51.14-.5.15-.5.17-.48.19-.48.21-.46.23-.46.24-.45.26-.43.27-.43.29-.41.31-.4.32-.39.34-.38.35-.36.36-.35.38-.33.38-.32.41-.31.41-.29.42-.28.44-.25.45-.25.45-.22.47-.21.47-.19.49-.17.49-.16.5-.13.51-.12.52-.09.52-.07.53-.06.54-.03.54-.01h103.37l.54.01.54.03zm-91.2 253.96h77V206.17h-77V433.8z" id="a"/><path d="M490.61.03l.36.02.37.04.36.05.36.05.36.07.36.08.35.08.36.1.35.1.35.12.35.12.34.14.34.14.34.16.34.17.33.18.32.19.31.2.31.2.3.22.3.22.29.23.28.23.27.24.27.25.26.26.25.26.25.27.23.27.23.28.22.29.22.29.2.3.2.31.19.31.17.31.18.32.16.33.15.33.14.33.14.34.12.34.12.35.11.35.1.36.08.36.08.36.07.36.06.37.04.38.04.37.03.38.01.38.01.38V626.8l-.01.37-.01.37-.03.38-.04.36-.04.37-.06.37-.07.36-.08.36-.08.35-.1.36-.11.35-.12.34-.12.35-.14.33-.14.34-.15.33-.16.33-.18.32-.17.31-.19.32-.2.3-.2.3-.22.3-.22.29-.23.29-.23.27-.25.28-.25.26-.26.26-.27.25-.27.25-.28.23-.29.23-.3.23-.3.21-.31.21-.31.2-.32.19-.33.18-.34.17-.15.06-.15.05-.15.06-.15.05-.15.05-.15.05-.15.05-.15.05-.15.05-.15.04-.14.05-.15.04-.15.05-.15.04-.15.04-.15.04-.15.03-.15.04-.14.04-.15.03-.15.03-.15.03-.14.03-.15.03-.15.03-.14.02-.15.02-.14.02-.15.02-.14.02-.15.02-.14.02-.15.01-.14.01-.14.01-.15.01h-.14l-.14.01h-.71l-.22-.01-.21-.01-.21-.02-.22-.02-.21-.02-.21-.02-.21-.03-.21-.03-.21-.04-.21-.04-.21-.04-.2-.04-.21-.05-.21-.05-.2-.06-.21-.06-.2-.06-.2-.07-.2-.07-.2-.07-.2-.08-.2-.08-.2-.08-.19-.09-.2-.09-.19-.1-.19-.09-.19-.11-.2-.1-.18-.11-.19-.11-.19-.12-.18-.12-.19-.12-.18-.13-.18-.13-.18-.14-.18-.14-236.13-179.75-.24-.19-.24-.19-.23-.2-.22-.21-.23-.21-.21-.21-.21-.22-.21-.22-.2-.23-.2-.23-.19-.24-.18-.24-.18-.24-.18-.25-.17-.25-.16-.25-.16-.26-.15-.26-.14-.27-.14-.27-.13-.27-.13-.27-.12-.28-.12-.28-.1-.28-.1-.29-.1-.28-.09-.29-.08-.29-.07-.3-.07-.29-.06-.3-.06-.3-.05-.3-.04-.3-.03-.31-.02-.3-.02-.31-.01-.31-.01-.31v-254l.01-.31.01-.3.01-.31.03-.31.03-.3.04-.3.04-.3.05-.3.06-.3.07-.3.07-.29.08-.29.08-.29.1-.29.09-.28.11-.28.11-.28.12-.28.12-.28.13-.27.14-.26.14-.27.15-.26.16-.26.16-.25.17-.25.17-.25.18-.25.19-.24.19-.23.2-.23.2-.23.21-.22.22-.22.22-.22.23-.21.23-.2.24-.2.24-.2.25-.19L481.69 2.67l.3-.22.31-.21.31-.2.32-.19.32-.18.32-.18.33-.16.33-.16.34-.14.34-.14.34-.12.35-.12.35-.11.35-.09.35-.09.35-.08.36-.07.36-.06.36-.05.36-.04.36-.03.36-.02.36-.01h.37l.36.01.36.02zm-223.8 440.39l209.63 159.75V39.67L266.81 199.42v241z" id="b"/></defs><use xlink:href="#a"/><use xlink:href="#a" fill-opacity="0" stroke="#000" stroke-opacity="0"/><g><use xlink:href="#b"/></g></svg>
